# xmcd CD database file
#
# Track frame offsets:
#	150
#	22160
#	35225
#	51093
#	68155
#	88060
#	107128
#	122598
#	145155
#	159750
#
# Disc length: 2374 seconds
#
# Revision: 25
# Processed by: cddbd v1.5.2PL0 Copyright (c) Steve Scherf et al.
# Submitted via: CDex 1.70beta2
#
DISCID=8709440a
DTITLE=Eric Clapton - 461 Ocean Boulevard  Remastered
DYEAR=1974
DGENRE=Rock
TTITLE0=Motherless Children ( Remastered 1974 ) - Eric Clapton
TTITLE1=Give Me Strength ( Remastered 1974 ) - Eric Clapton
TTITLE2=Willie And The Hand Jive ( Remastered 1974 ) - Eric Clapton
TTITLE3=Get Ready ( Remastered 1974 ) - Eric Clapton
TTITLE4=I Shot The Sheriff ( Remastered 1974 ) - Eric Clapton
TTITLE5=I Can't Hold Out ( Remastered 1974 ) - Eric Clapton
TTITLE6=Please Be With Me ( Remastered 1974 ) - Eric Clapton
TTITLE7=Let It Grow ( Remastered 1974 ) - Eric Clapton
TTITLE8=Steady Rollin' Man ( Remastered 1974 ) - Eric Clapton
TTITLE9=Mainline Florida ( Remastered 1974 ) - Eric Clapton
EXTD=CD 1996 - digitally remastered\nPolygram 531 821-2\n\nDigitally remastered\nPolygram - Polydor - 531 821-2 YEAR: 1974
EXTT0=
EXTT1=
EXTT2=
EXTT3=
EXTT4=
EXTT5=
EXTT6=
EXTT7=
EXTT8=
EXTT9=
PLAYORDER=
